<svg width="935" height="428" viewBox="0 0 935 428" fill="none" xmlns="http://www.w3.org/2000/svg">
<path d="M491.04 178.273H502.048V226.107C502.048 231.196 500.853 235.706 498.462 239.636C496.071 243.543 492.709 246.62 488.376 248.869C484.044 251.095 478.966 252.207 473.142 252.207C467.342 252.207 462.276 251.095 457.943 248.869C453.611 246.62 450.249 243.543 447.858 239.636C445.467 235.706 444.271 231.196 444.271 226.107V178.273H455.244V225.219C455.244 228.509 455.966 231.433 457.411 233.99C458.878 236.547 460.95 238.559 463.625 240.027C466.3 241.471 469.473 242.193 473.142 242.193C476.835 242.193 480.019 241.471 482.695 240.027C485.393 238.559 487.453 236.547 488.874 233.99C490.318 231.433 491.04 228.509 491.04 225.219V178.273ZM527.767 218.614V251H517.15V196.455H527.341V205.332H528.016C529.271 202.444 531.236 200.124 533.911 198.372C536.61 196.62 540.007 195.744 544.103 195.744C547.819 195.744 551.075 196.526 553.868 198.088C556.662 199.627 558.828 201.923 560.367 204.977C561.906 208.031 562.675 211.807 562.675 216.305V251H552.057V217.584C552.057 213.63 551.027 210.541 548.968 208.315C546.908 206.066 544.079 204.942 540.48 204.942C538.018 204.942 535.828 205.474 533.911 206.54C532.017 207.605 530.514 209.168 529.401 211.227C528.312 213.263 527.767 215.725 527.767 218.614ZM576.915 251V196.455H587.533V251H576.915ZM582.277 188.038C580.431 188.038 578.845 187.423 577.519 186.192C576.217 184.937 575.566 183.446 575.566 181.717C575.566 179.965 576.217 178.474 577.519 177.243C578.845 175.988 580.431 175.361 582.277 175.361C584.124 175.361 585.698 175.988 587 177.243C588.326 178.474 588.989 179.965 588.989 181.717C588.989 183.446 588.326 184.937 587 186.192C585.698 187.423 584.124 188.038 582.277 188.038ZM642.336 197.378C641.957 194.016 640.395 191.412 637.648 189.565C634.902 187.695 631.446 186.76 627.279 186.76C624.296 186.76 621.716 187.233 619.538 188.18C617.36 189.104 615.667 190.382 614.46 192.016C613.276 193.625 612.684 195.46 612.684 197.52C612.684 199.248 613.086 200.74 613.891 201.994C614.72 203.249 615.797 204.303 617.123 205.155C618.472 205.983 619.916 206.682 621.455 207.25C622.994 207.795 624.474 208.244 625.894 208.599L632.996 210.446C635.317 211.014 637.696 211.784 640.134 212.754C642.573 213.725 644.834 215.003 646.917 216.589C649 218.176 650.681 220.141 651.96 222.484C653.262 224.828 653.913 227.634 653.913 230.901C653.913 235.02 652.847 238.678 650.717 241.874C648.61 245.07 645.544 247.591 641.519 249.438C637.518 251.284 632.677 252.207 626.995 252.207C621.55 252.207 616.839 251.343 612.862 249.615C608.884 247.887 605.771 245.437 603.522 242.264C601.273 239.068 600.03 235.28 599.793 230.901H610.802C611.015 233.528 611.867 235.718 613.359 237.47C614.874 239.198 616.803 240.489 619.147 241.341C621.514 242.17 624.107 242.584 626.924 242.584C630.025 242.584 632.783 242.098 635.198 241.128C637.637 240.134 639.554 238.76 640.951 237.009C642.348 235.233 643.046 233.161 643.046 230.794C643.046 228.64 642.431 226.876 641.2 225.503C639.992 224.13 638.347 222.993 636.263 222.094C634.204 221.194 631.872 220.401 629.268 219.714L620.674 217.371C614.85 215.785 610.234 213.453 606.825 210.375C603.439 207.297 601.746 203.225 601.746 198.159C601.746 193.969 602.883 190.311 605.156 187.186C607.428 184.061 610.506 181.634 614.388 179.906C618.271 178.154 622.651 177.278 627.528 177.278C632.452 177.278 636.796 178.143 640.56 179.871C644.348 181.599 647.331 183.978 649.509 187.009C651.687 190.015 652.824 193.472 652.918 197.378H642.336ZM666.173 271.455V196.455H676.542V205.297H677.43C678.046 204.161 678.933 202.847 680.093 201.355C681.253 199.864 682.863 198.562 684.923 197.449C686.983 196.312 689.705 195.744 693.091 195.744C697.494 195.744 701.424 196.857 704.88 199.082C708.337 201.308 711.047 204.516 713.012 208.706C715.001 212.896 715.995 217.939 715.995 223.834C715.995 229.729 715.013 234.783 713.048 238.997C711.083 243.187 708.384 246.419 704.951 248.692C701.519 250.941 697.6 252.065 693.197 252.065C689.883 252.065 687.172 251.509 685.065 250.396C682.982 249.284 681.348 247.982 680.164 246.49C678.981 244.999 678.069 243.673 677.43 242.513H676.791V271.455H666.173ZM676.578 223.727C676.578 227.562 677.134 230.924 678.247 233.812C679.359 236.701 680.969 238.962 683.076 240.595C685.183 242.205 687.764 243.01 690.818 243.01C693.99 243.01 696.642 242.17 698.772 240.489C700.903 238.784 702.513 236.476 703.602 233.564C704.715 230.652 705.271 227.373 705.271 223.727C705.271 220.129 704.726 216.897 703.637 214.033C702.572 211.168 700.962 208.907 698.808 207.25C696.677 205.593 694.014 204.764 690.818 204.764C687.74 204.764 685.136 205.557 683.005 207.143C680.898 208.73 679.3 210.943 678.211 213.784C677.122 216.625 676.578 219.939 676.578 223.727ZM738.51 218.614V251H727.892V178.273H738.368V205.332H739.042C740.321 202.397 742.274 200.065 744.902 198.337C747.529 196.608 750.962 195.744 755.2 195.744C758.94 195.744 762.208 196.514 765.001 198.053C767.818 199.591 769.996 201.888 771.535 204.942C773.098 207.972 773.879 211.76 773.879 216.305V251H763.261V217.584C763.261 213.583 762.231 210.482 760.172 208.28C758.112 206.054 755.247 204.942 751.578 204.942C749.068 204.942 746.819 205.474 744.831 206.54C742.866 207.605 741.315 209.168 740.179 211.227C739.066 213.263 738.51 215.725 738.51 218.614ZM811.556 252.101C806.182 252.101 801.554 250.953 797.672 248.656C793.813 246.336 790.83 243.081 788.723 238.891C786.639 234.677 785.598 229.741 785.598 224.082C785.598 218.495 786.639 213.571 788.723 209.31C790.83 205.048 793.765 201.722 797.529 199.331C801.317 196.94 805.744 195.744 810.811 195.744C813.888 195.744 816.871 196.253 819.76 197.271C822.648 198.289 825.24 199.887 827.537 202.065C829.833 204.243 831.644 207.072 832.97 210.553C834.296 214.009 834.958 218.211 834.958 223.159V226.923H791.599V218.969H824.554C824.554 216.175 823.985 213.701 822.849 211.547C821.713 209.369 820.115 207.652 818.055 206.398C816.019 205.143 813.628 204.516 810.882 204.516C807.899 204.516 805.295 205.25 803.069 206.717C800.868 208.161 799.163 210.055 797.956 212.399C796.772 214.719 796.18 217.241 796.18 219.963V226.178C796.18 229.823 796.819 232.925 798.098 235.482C799.4 238.038 801.211 239.991 803.531 241.341C805.851 242.667 808.562 243.33 811.663 243.33C813.675 243.33 815.51 243.045 817.167 242.477C818.824 241.885 820.257 241.009 821.464 239.849C822.672 238.689 823.595 237.257 824.234 235.553L834.284 237.364C833.479 240.323 832.035 242.915 829.951 245.141C827.892 247.342 825.299 249.059 822.174 250.29C819.073 251.497 815.534 252.101 811.556 252.101ZM846.739 251V196.455H857.002V205.119H857.57C858.565 202.184 860.317 199.875 862.826 198.195C865.359 196.49 868.224 195.638 871.42 195.638C872.083 195.638 872.864 195.661 873.763 195.709C874.687 195.756 875.409 195.815 875.93 195.886V206.043C875.504 205.924 874.746 205.794 873.657 205.652C872.568 205.486 871.479 205.403 870.39 205.403C867.88 205.403 865.643 205.936 863.678 207.001C861.737 208.043 860.198 209.499 859.062 211.369C857.925 213.216 857.357 215.323 857.357 217.69V251H846.739ZM906.674 252.101C901.3 252.101 896.671 250.953 892.789 248.656C888.93 246.336 885.947 243.081 883.84 238.891C881.757 234.677 880.715 229.741 880.715 224.082C880.715 218.495 881.757 213.571 883.84 209.31C885.947 205.048 888.882 201.722 892.647 199.331C896.435 196.94 900.862 195.744 905.928 195.744C909.006 195.744 911.989 196.253 914.877 197.271C917.765 198.289 920.357 199.887 922.654 202.065C924.95 204.243 926.761 207.072 928.087 210.553C929.413 214.009 930.076 218.211 930.076 223.159V226.923H886.716V218.969H919.671C919.671 216.175 919.103 213.701 917.966 211.547C916.83 209.369 915.232 207.652 913.172 206.398C911.136 205.143 908.745 204.516 905.999 204.516C903.016 204.516 900.412 205.25 898.186 206.717C895.985 208.161 894.28 210.055 893.073 212.399C891.889 214.719 891.297 217.241 891.297 219.963V226.178C891.297 229.823 891.936 232.925 893.215 235.482C894.517 238.038 896.328 239.991 898.648 241.341C900.968 242.667 903.679 243.33 906.78 243.33C908.792 243.33 910.627 243.045 912.284 242.477C913.942 241.885 915.374 241.009 916.581 239.849C917.789 238.689 918.712 237.257 919.351 235.553L929.401 237.364C928.596 240.323 927.152 242.915 925.069 245.141C923.009 247.342 920.417 249.059 917.292 250.29C914.19 251.497 910.651 252.101 906.674 252.101Z" fill="black"/>
<path fill-rule="evenodd" clip-rule="evenodd" d="M126.273 58.6913C132.108 58.6913 137.538 56.9588 142.077 53.9802L172.1 89.3846L104.263 124.311L118.994 57.7652C121.319 58.3697 123.758 58.6913 126.273 58.6913ZM62.904 145.606L99.6396 126.692L115.181 56.482C113.151 55.6357 111.239 54.5642 109.475 53.2986L53.5931 135.651C57.3372 138.291 60.5139 141.683 62.904 145.606ZM60.6675 254.256C62.0474 254.099 63.4505 254.018 64.8725 254.018C67.0755 254.018 69.233 254.212 71.329 254.584L92.7379 157.87L67.6556 160.326C67.7229 161.191 67.7571 162.065 67.7571 162.948C67.7571 177.539 58.395 189.943 45.3502 194.481L60.6675 254.256ZM75.2234 255.499C79.094 256.635 82.6988 258.393 85.9227 260.656L180.361 149.291L96.9255 157.46L75.2234 255.499ZM89.0687 263.131L186.08 148.731L219.639 145.445L306.56 247.946C297.086 256.254 291.105 268.448 291.105 282.039C291.105 307.074 311.399 327.368 336.434 327.368C361.468 327.368 381.763 307.074 381.763 282.039C381.763 260.54 366.796 242.537 346.713 237.881L355.044 159.237C355.159 159.238 355.274 159.239 355.39 159.239C371.321 159.239 384.235 146.324 384.235 130.393C384.235 114.462 371.321 101.548 355.39 101.548C348.955 101.548 343.013 103.654 338.215 107.216L298.196 61.1315C304.007 55.188 307.588 47.0559 307.588 38.0873C307.588 19.8804 292.829 5.12081 274.622 5.12081C257.952 5.12081 244.172 17.4938 241.964 33.5571L155.113 30.4033C155.116 30.2178 155.118 30.032 155.118 29.8457C155.118 13.9146 142.204 1 126.273 1C110.342 1 97.4269 13.9146 97.4269 29.8457C97.4269 38.0649 100.865 45.4812 106.38 50.7353L50.1889 133.544C45.483 131.008 40.0988 129.569 34.3786 129.569C15.9441 129.569 1 144.513 1 162.948C1 181.382 15.9441 196.326 34.3786 196.326C36.8222 196.326 39.2045 196.064 41.4988 195.565L56.7107 254.929C40.384 258.64 28.1973 273.243 28.1973 290.693C28.1973 310.948 44.6174 327.368 64.8725 327.368C85.1277 327.368 101.548 310.948 101.548 290.693C101.548 279.709 96.7191 269.853 89.0687 263.131ZM324.658 238.255C319.189 239.722 314.128 242.187 309.682 245.442L224.482 144.971L298.053 137.767L324.658 238.255ZM336.434 236.71C333.751 236.71 331.122 236.943 328.567 237.391L302.086 137.373L326.901 134.943C328.859 147.302 338.666 157.049 351.056 158.916L342.768 237.149C340.698 236.86 338.583 236.71 336.434 236.71ZM284.157 69.6539C288.239 68.4225 291.987 66.4211 295.232 63.8184L335.175 109.816C329.848 115.049 326.544 122.336 326.544 130.393C326.544 130.5 326.544 130.606 326.546 130.712C326.547 130.794 326.548 130.876 326.549 130.958L301.049 133.455L284.157 69.6539ZM274.622 71.0538C276.545 71.0538 278.429 70.8891 280.262 70.5731L297.015 133.85L221.335 141.26L206.875 124.208L256.532 65.6514C261.725 69.0667 267.941 71.0538 274.622 71.0538ZM246.63 55.5106C248.45 58.4269 250.712 61.0383 253.323 63.2506L204.253 121.116L178.406 90.6367L246.63 55.5106ZM241.655 38.0873C241.655 43.0561 242.755 47.7682 244.723 51.9936L175.751 87.5049L145.266 51.556C150.225 47.2138 153.684 41.1996 154.762 34.3932L241.66 37.5487C241.657 37.7279 241.655 37.9074 241.655 38.0873ZM67.1072 156.36C66.6027 153.84 65.8142 151.422 64.7765 149.141L98.5156 131.77L93.6473 153.762L67.1072 156.36ZM184.078 144.908L97.8349 153.352L103.139 129.389L174.756 92.5163L201.631 124.208L184.078 144.908ZM216.492 141.734L189.797 144.348L204.253 127.301L216.492 141.734ZM268.075 267.616C268.075 296.918 249.979 321.993 224.352 332.275L270.547 331.901C270.547 331.901 277.553 332.725 278.789 333.137C280.026 333.549 284.558 335.61 286.207 337.67C287.855 339.73 289.091 341.791 290.739 345.5C292.388 349.208 304.338 397.422 303.926 402.779C303.575 407.346 303.309 407.915 302.399 409.86C302.242 410.196 302.065 410.574 301.866 411.02C300.04 415.105 298.254 417.171 294.86 420.086C291.292 423.151 287.996 424.317 284.208 425.657C283.649 425.854 283.08 426.056 282.498 426.267C277.965 427.916 116.017 426.267 116.017 426.267C116.017 426.267 113.757 425.845 112.308 425.443C111.946 425.342 111.635 425.266 111.348 425.196L111.347 425.195C110.488 424.985 109.835 424.824 108.6 424.207C106.951 423.383 103.951 420.952 101.594 418.026C99.24 415.102 97.4735 409.784 97.4735 409.784C97.4735 409.784 97.3688 406.015 97.4735 403.603C97.7925 396.255 100.77 385.059 100.77 385.059L105.303 359.098C105.303 359.098 106.443 351.243 108.6 346.736C108.831 346.251 109.015 345.848 109.178 345.492C109.933 343.834 110.224 343.195 112.72 340.143C115.753 336.434 118.902 333.961 123.435 332.725C127.967 331.489 168.763 332.725 168.763 332.725L173.564 332.686C147.384 322.674 128.792 297.316 128.792 267.616C128.792 229.154 159.971 197.975 198.433 197.975C236.895 197.975 268.075 229.154 268.075 267.616Z" fill="black"/>
<path d="M142.077 53.9802L142.459 53.6568L142.173 53.3196L141.803 53.5622L142.077 53.9802ZM172.1 89.3846L172.329 89.8291L172.888 89.5411L172.481 89.0612L172.1 89.3846ZM104.263 124.311L103.775 124.203L103.545 125.244L104.492 124.756L104.263 124.311ZM118.994 57.7652L119.12 57.2813L118.618 57.1509L118.506 57.6572L118.994 57.7652ZM99.6396 126.692L99.8685 127.136L100.077 127.029L100.128 126.8L99.6396 126.692ZM62.904 145.606L62.477 145.866L62.7192 146.263L63.1329 146.05L62.904 145.606ZM115.181 56.482L115.67 56.59L115.76 56.1815L115.374 56.0205L115.181 56.482ZM109.475 53.2986L109.767 52.8924L109.35 52.5932L109.061 53.0179L109.475 53.2986ZM53.5931 135.651L53.1793 135.37L52.9036 135.777L53.3049 136.06L53.5931 135.651ZM60.6675 254.256L60.1831 254.38L60.2913 254.802L60.7242 254.753L60.6675 254.256ZM71.329 254.584L71.2416 255.076L71.7136 255.16L71.8172 254.692L71.329 254.584ZM92.7379 157.87L93.2261 157.978L93.375 157.305L92.6892 157.372L92.7379 157.87ZM67.6556 160.326L67.6069 159.828L67.1192 159.876L67.1571 160.365L67.6556 160.326ZM45.3502 194.481L45.1859 194.009L44.7518 194.16L44.8659 194.605L45.3502 194.481ZM85.9227 260.656L85.6354 261.066L86.0089 261.328L86.304 260.98L85.9227 260.656ZM75.2234 255.499L74.7352 255.391L74.6342 255.847L75.0825 255.978L75.2234 255.499ZM180.361 149.291L180.742 149.614L181.54 148.673L180.312 148.793L180.361 149.291ZM96.9255 157.46L96.8768 156.962L96.5157 156.998L96.4373 157.352L96.9255 157.46ZM186.08 148.731L186.031 148.233L185.83 148.253L185.699 148.407L186.08 148.731ZM89.0687 263.131L88.6873 262.808L88.3696 263.182L88.7387 263.507L89.0687 263.131ZM219.639 145.445L220.021 145.122L219.851 144.922L219.591 144.947L219.639 145.445ZM306.56 247.946L306.89 248.322L307.26 247.998L306.942 247.623L306.56 247.946ZM346.713 237.881L346.215 237.828L346.169 238.268L346.6 238.368L346.713 237.881ZM355.044 159.237L355.05 158.737L354.595 158.732L354.547 159.184L355.044 159.237ZM338.215 107.216L337.837 107.544L338.141 107.893L338.513 107.617L338.215 107.216ZM298.196 61.1315L297.839 60.7819L297.517 61.1114L297.819 61.4593L298.196 61.1315ZM241.964 33.5571L241.946 34.0568L242.398 34.0732L242.459 33.6252L241.964 33.5571ZM155.113 30.4033L154.613 30.3938L154.604 30.8851L155.095 30.9029L155.113 30.4033ZM106.38 50.7353L106.794 51.0161L107.032 50.6655L106.725 50.3733L106.38 50.7353ZM50.1889 133.544L49.9518 133.984L50.3492 134.198L50.6027 133.825L50.1889 133.544ZM41.4988 195.565L41.9831 195.441L41.8635 194.974L41.3926 195.077L41.4988 195.565ZM56.7107 254.929L56.8215 255.417L57.3226 255.303L57.195 254.805L56.7107 254.929ZM309.682 245.442L309.3 245.766L309.602 246.121L309.977 245.846L309.682 245.442ZM324.658 238.255L324.787 238.738L325.269 238.609L325.141 238.127L324.658 238.255ZM224.482 144.971L224.433 144.473L223.483 144.566L224.101 145.294L224.482 144.971ZM298.053 137.767L298.536 137.639L298.427 137.228L298.004 137.27L298.053 137.767ZM328.567 237.391L328.083 237.519L328.201 237.962L328.653 237.883L328.567 237.391ZM302.086 137.373L302.037 136.875L301.452 136.932L301.603 137.5L302.086 137.373ZM326.901 134.943L327.394 134.865L327.321 134.399L326.852 134.445L326.901 134.943ZM351.056 158.916L351.553 158.968L351.604 158.493L351.13 158.421L351.056 158.916ZM342.768 237.149L342.698 237.644L343.21 237.716L343.265 237.202L342.768 237.149ZM295.232 63.8184L295.609 63.4906L295.294 63.1275L294.919 63.4284L295.232 63.8184ZM284.157 69.6539L284.012 69.1752L283.55 69.3147L283.673 69.7818L284.157 69.6539ZM335.175 109.816L335.525 110.172L335.861 109.843L335.552 109.488L335.175 109.816ZM326.546 130.712L327.046 130.707L327.046 130.707L326.546 130.712ZM326.549 130.958L326.598 131.456L327.058 131.411L327.049 130.949L326.549 130.958ZM301.049 133.455L300.565 133.583L300.674 133.994L301.097 133.953L301.049 133.455ZM280.262 70.5731L280.745 70.4451L280.628 70.0026L280.177 70.0804L280.262 70.5731ZM297.015 133.85L297.064 134.347L297.649 134.29L297.499 133.722L297.015 133.85ZM221.335 141.26L220.954 141.583L221.123 141.783L221.384 141.757L221.335 141.26ZM206.875 124.208L206.494 123.885L206.22 124.208L206.494 124.532L206.875 124.208ZM256.532 65.6514L256.806 65.2336L256.436 64.9904L256.15 65.328L256.532 65.6514ZM253.323 63.2506L253.704 63.574L254.028 63.1924L253.646 62.8691L253.323 63.2506ZM246.63 55.5106L247.055 55.246L246.811 54.8553L246.402 55.0661L246.63 55.5106ZM204.253 121.116L203.872 121.439L204.253 121.889L204.634 121.439L204.253 121.116ZM178.406 90.6367L178.178 90.1921L177.618 90.4802L178.025 90.96L178.406 90.6367ZM244.723 51.9936L244.952 52.4381L245.379 52.2181L245.176 51.7824L244.723 51.9936ZM175.751 87.5049L175.369 87.8283L175.626 88.1314L175.98 87.9495L175.751 87.5049ZM145.266 51.556L144.937 51.1799L144.566 51.5041L144.885 51.8794L145.266 51.556ZM154.762 34.3932L154.78 33.8935L154.337 33.8774L154.268 34.315L154.762 34.3932ZM241.66 37.5487L242.159 37.5567L242.167 37.0668L241.678 37.0491L241.66 37.5487ZM64.7765 149.141L64.5476 148.696L64.1242 148.914L64.3214 149.348L64.7765 149.141ZM67.1072 156.36L66.6169 156.459L66.7057 156.902L67.1559 156.858L67.1072 156.36ZM98.5156 131.77L99.0038 131.878L99.2341 130.837L98.2867 131.325L98.5156 131.77ZM93.6473 153.762L93.696 154.26L94.0571 154.224L94.1355 153.87L93.6473 153.762ZM97.8349 153.352L97.3467 153.244L97.1978 153.917L97.8836 153.849L97.8349 153.352ZM184.078 144.908L184.126 145.405L184.328 145.386L184.459 145.231L184.078 144.908ZM103.139 129.389L102.911 128.944L102.702 129.052L102.651 129.281L103.139 129.389ZM174.756 92.5163L175.137 92.1929L174.88 91.8899L174.527 92.0717L174.756 92.5163ZM201.631 124.208L202.012 124.532L202.286 124.208L202.012 123.885L201.631 124.208ZM189.797 144.348L189.416 144.024L188.617 144.966L189.846 144.845L189.797 144.348ZM216.492 141.734L216.541 142.232L217.491 142.139L216.874 141.411L216.492 141.734ZM204.253 127.301L204.634 126.977L204.253 126.528L203.872 126.977L204.253 127.301ZM224.352 332.275L224.166 331.811L224.357 332.775L224.352 332.275ZM270.547 331.901L270.606 331.404L270.575 331.401L270.543 331.401L270.547 331.901ZM286.207 337.67L285.816 337.982L285.816 337.982L286.207 337.67ZM303.926 402.779L304.425 402.817L304.425 402.817L303.926 402.779ZM302.399 409.86L302.852 410.072L302.852 410.072L302.399 409.86ZM301.866 411.02L302.322 411.225L302.322 411.225L301.866 411.02ZM294.86 420.086L295.186 420.466L295.186 420.466L294.86 420.086ZM284.208 425.657L284.374 426.128L284.374 426.128L284.208 425.657ZM282.498 426.267L282.669 426.737L282.669 426.737L282.498 426.267ZM116.017 426.267L115.925 426.759L115.968 426.767L116.012 426.767L116.017 426.267ZM112.308 425.443L112.442 424.961L112.442 424.961L112.308 425.443ZM111.348 425.196L111.222 425.68L111.229 425.681L111.348 425.196ZM111.347 425.195L111.473 424.712L111.466 424.71L111.347 425.195ZM108.6 424.207L108.376 424.654L108.376 424.654L108.6 424.207ZM101.594 418.026L101.984 417.712L101.984 417.712L101.594 418.026ZM97.4735 409.784L96.9737 409.798L96.9757 409.872L96.999 409.942L97.4735 409.784ZM97.4735 403.603L97.973 403.625L97.973 403.625L97.4735 403.603ZM100.77 385.059L101.253 385.188L101.259 385.167L101.263 385.145L100.77 385.059ZM105.303 359.098L105.796 359.184L105.797 359.177L105.798 359.17L105.303 359.098ZM108.6 346.736L109.051 346.952L109.051 346.952L108.6 346.736ZM109.178 345.492L108.723 345.285L108.723 345.285L109.178 345.492ZM112.72 340.143L112.333 339.826L112.333 339.826L112.72 340.143ZM123.435 332.725L123.566 333.208L123.566 333.208L123.435 332.725ZM168.763 332.725L168.748 333.225L168.758 333.225L168.767 333.225L168.763 332.725ZM173.564 332.686L173.568 333.186L173.743 332.219L173.564 332.686ZM141.803 53.5622C137.343 56.489 132.007 58.1913 126.273 58.1913V59.1913C132.208 59.1913 137.733 57.4287 142.352 54.3982L141.803 53.5622ZM172.481 89.0612L142.459 53.6568L141.696 54.3036L171.719 89.7079L172.481 89.0612ZM104.492 124.756L172.329 89.8291L171.871 88.94L104.035 123.867L104.492 124.756ZM118.506 57.6572L103.775 124.203L104.752 124.419L119.482 57.8733L118.506 57.6572ZM126.273 58.1913C123.801 58.1913 121.404 57.8752 119.12 57.2813L118.868 58.2492C121.234 58.8642 123.716 59.1913 126.273 59.1913V58.1913ZM99.4107 126.247L62.6751 145.161L63.1329 146.05L99.8685 127.136L99.4107 126.247ZM114.693 56.3739L99.1514 126.584L100.128 126.8L115.67 56.59L114.693 56.3739ZM109.184 53.7049C110.978 54.9923 112.924 56.0825 114.989 56.9435L115.374 56.0205C113.379 55.189 111.5 54.1361 109.767 52.8924L109.184 53.7049ZM54.0068 135.932L109.889 53.5794L109.061 53.0179L53.1793 135.37L54.0068 135.932ZM63.331 145.346C60.9051 141.364 57.6812 137.922 53.8812 135.242L53.3049 136.06C56.9933 138.661 60.1226 142.001 62.477 145.866L63.331 145.346ZM64.8725 253.518C63.4315 253.518 62.0094 253.6 60.6108 253.759L60.7242 254.753C62.0853 254.598 63.4695 254.518 64.8725 254.518V253.518ZM71.4165 254.092C69.2917 253.714 67.1049 253.518 64.8725 253.518V254.518C67.046 254.518 69.1743 254.709 71.2416 255.076L71.4165 254.092ZM92.2497 157.762L70.8408 254.476L71.8172 254.692L93.2261 157.978L92.2497 157.762ZM67.7044 160.824L92.7866 158.368L92.6892 157.372L67.6069 159.828L67.7044 160.824ZM68.2571 162.948C68.2571 162.052 68.2224 161.165 68.1541 160.287L67.1571 160.365C67.2234 161.217 67.2571 162.078 67.2571 162.948H68.2571ZM45.5145 194.953C58.7541 190.347 68.2571 177.758 68.2571 162.948H67.2571C67.2571 177.319 58.036 189.538 45.1859 194.009L45.5145 194.953ZM61.1518 254.132L45.8346 194.357L44.8659 194.605L60.1831 254.38L61.1518 254.132ZM86.21 260.247C82.9423 257.953 79.2881 256.171 75.3643 255.019L75.0825 255.978C78.8998 257.099 82.4553 258.833 85.6354 261.066L86.21 260.247ZM179.979 148.967L85.5413 260.333L86.304 260.98L180.742 149.614L179.979 148.967ZM96.9742 157.958L180.409 149.788L180.312 148.793L96.8768 156.962L96.9742 157.958ZM75.7116 255.607L97.4137 157.568L96.4373 157.352L74.7352 255.391L75.7116 255.607ZM185.699 148.407L88.6873 262.808L89.45 263.454L186.462 149.054L185.699 148.407ZM219.591 144.947L186.031 148.233L186.129 149.228L219.688 145.943L219.591 144.947ZM306.942 247.623L220.021 145.122L219.258 145.768L306.179 248.27L306.942 247.623ZM291.605 282.039C291.605 268.598 297.52 256.539 306.89 248.322L306.231 247.57C296.653 255.969 290.605 268.298 290.605 282.039H291.605ZM336.434 326.868C311.676 326.868 291.605 306.797 291.605 282.039H290.605C290.605 307.35 311.123 327.868 336.434 327.868V326.868ZM381.263 282.039C381.263 306.797 361.192 326.868 336.434 326.868V327.868C361.744 327.868 382.263 307.35 382.263 282.039H381.263ZM346.6 238.368C366.461 242.973 381.263 260.778 381.263 282.039H382.263C382.263 260.302 367.13 242.101 346.826 237.394L346.6 238.368ZM354.547 159.184L346.215 237.828L347.21 237.933L355.541 159.29L354.547 159.184ZM355.39 158.739C355.276 158.739 355.163 158.738 355.05 158.737L355.038 159.737C355.155 159.738 355.272 159.739 355.39 159.739V158.739ZM383.735 130.393C383.735 146.048 371.044 158.739 355.39 158.739V159.739C371.597 159.739 384.735 146.601 384.735 130.393H383.735ZM355.39 102.048C371.044 102.048 383.735 114.739 383.735 130.393H384.735C384.735 114.186 371.597 101.048 355.39 101.048V102.048ZM338.513 107.617C343.228 104.118 349.066 102.048 355.39 102.048V101.048C348.844 101.048 342.798 103.191 337.917 106.814L338.513 107.617ZM297.819 61.4593L337.837 107.544L338.592 106.888L298.574 60.8036L297.819 61.4593ZM307.088 38.0873C307.088 46.92 303.562 54.9281 297.839 60.7819L298.554 61.481C304.452 55.4479 308.088 47.1917 308.088 38.0873H307.088ZM274.622 5.62081C292.552 5.62081 307.088 20.1565 307.088 38.0873H308.088C308.088 19.6043 293.105 4.62081 274.622 4.62081V5.62081ZM242.459 33.6252C244.633 17.806 258.205 5.62081 274.622 5.62081V4.62081C257.698 4.62081 243.71 17.1816 241.469 33.4891L242.459 33.6252ZM155.095 30.9029L241.946 34.0568L241.982 33.0575L155.131 29.9036L155.095 30.9029ZM154.618 29.8457C154.618 30.0288 154.617 30.2115 154.613 30.3938L155.613 30.4127C155.616 30.2241 155.618 30.0351 155.618 29.8457H154.618ZM126.273 1.5C141.927 1.5 154.618 14.1908 154.618 29.8457H155.618C155.618 13.6385 142.48 0.5 126.273 0.5V1.5ZM97.9269 29.8457C97.9269 14.1908 110.618 1.5 126.273 1.5V0.5C110.065 0.5 96.9269 13.6385 96.9269 29.8457H97.9269ZM106.725 50.3733C101.304 45.2096 97.9269 37.9225 97.9269 29.8457H96.9269C96.9269 38.2073 100.425 45.7528 106.036 51.0974L106.725 50.3733ZM50.6027 133.825L106.794 51.0161L105.967 50.4546L49.7752 133.263L50.6027 133.825ZM34.3786 130.069C40.014 130.069 45.317 131.487 49.9518 133.984L50.4261 133.104C45.6491 130.53 40.1837 129.069 34.3786 129.069V130.069ZM1.5 162.948C1.5 144.789 16.2202 130.069 34.3786 130.069V129.069C15.6679 129.069 0.5 144.237 0.5 162.948H1.5ZM34.3786 195.826C16.2202 195.826 1.5 181.106 1.5 162.948H0.5C0.5 181.658 15.6679 196.826 34.3786 196.826V195.826ZM41.3926 195.077C39.133 195.568 36.7863 195.826 34.3786 195.826V196.826C36.8581 196.826 39.276 196.56 41.6049 196.054L41.3926 195.077ZM57.195 254.805L41.9831 195.441L41.0144 195.689L56.2263 255.053L57.195 254.805ZM28.6973 290.693C28.6973 273.482 40.7175 259.077 56.8215 255.417L56.5999 254.442C40.0506 258.203 27.6973 273.005 27.6973 290.693H28.6973ZM64.8725 326.868C44.8935 326.868 28.6973 310.672 28.6973 290.693H27.6973C27.6973 311.224 44.3412 327.868 64.8725 327.868V326.868ZM101.048 290.693C101.048 310.672 84.8516 326.868 64.8725 326.868V327.868C85.4038 327.868 102.048 311.224 102.048 290.693H101.048ZM88.7387 263.507C96.2856 270.137 101.048 279.859 101.048 290.693H102.048C102.048 279.559 97.1526 269.568 89.3987 262.755L88.7387 263.507ZM309.977 245.846C314.374 242.626 319.379 240.189 324.787 238.738L324.528 237.772C318.998 239.256 313.881 241.748 309.386 245.039L309.977 245.846ZM224.101 145.294L309.3 245.766L310.063 245.119L224.863 144.647L224.101 145.294ZM298.004 137.27L224.433 144.473L224.531 145.468L298.101 138.265L298.004 137.27ZM325.141 238.127L298.536 137.639L297.569 137.895L324.174 238.383L325.141 238.127ZM328.653 237.883C331.18 237.441 333.78 237.21 336.434 237.21V236.21C333.722 236.21 331.064 236.446 328.481 236.898L328.653 237.883ZM301.603 137.5L328.083 237.519L329.05 237.263L302.569 137.245L301.603 137.5ZM326.852 134.445L302.037 136.875L302.135 137.87L326.949 135.44L326.852 134.445ZM351.13 158.421C338.957 156.587 329.319 147.009 327.394 134.865L326.407 135.021C328.399 147.596 338.376 157.511 350.981 159.41L351.13 158.421ZM343.265 237.202L351.553 158.968L350.559 158.863L342.27 237.097L343.265 237.202ZM336.434 237.21C338.56 237.21 340.652 237.358 342.698 237.644L342.837 236.654C340.744 236.362 338.607 236.21 336.434 236.21V237.21ZM294.919 63.4284C291.723 65.9918 288.032 67.9627 284.012 69.1752L284.301 70.1325C288.445 68.8824 292.251 66.8504 295.545 64.2085L294.919 63.4284ZM335.552 109.488L295.609 63.4906L294.854 64.1463L334.797 110.144L335.552 109.488ZM327.044 130.393C327.044 122.475 330.29 115.316 335.525 110.172L334.824 109.459C329.406 114.783 326.044 122.196 326.044 130.393H327.044ZM327.046 130.707C327.044 130.602 327.044 130.498 327.044 130.393H326.044C326.044 130.502 326.045 130.61 326.046 130.718L327.046 130.707ZM327.049 130.949C327.048 130.868 327.046 130.787 327.046 130.707L326.046 130.717C326.047 130.801 326.048 130.884 326.049 130.968L327.049 130.949ZM301.097 133.953L326.598 131.456L326.501 130.461L301 132.957L301.097 133.953ZM283.673 69.7818L300.565 133.583L301.532 133.327L284.64 69.5259L283.673 69.7818ZM280.177 70.0804C278.372 70.3916 276.516 70.5538 274.622 70.5538V71.5538C276.573 71.5538 278.486 71.3866 280.347 71.0658L280.177 70.0804ZM297.499 133.722L280.745 70.4451L279.779 70.7011L296.532 133.978L297.499 133.722ZM221.384 141.757L297.064 134.347L296.967 133.352L221.286 140.762L221.384 141.757ZM206.494 124.532L220.954 141.583L221.716 140.936L207.257 123.885L206.494 124.532ZM256.15 65.328L206.494 123.885L207.257 124.532L256.913 65.9747L256.15 65.328ZM274.622 70.5538C268.042 70.5538 261.921 68.5969 256.806 65.2336L256.257 66.0691C261.529 69.5365 267.841 71.5538 274.622 71.5538V70.5538ZM253.646 62.8691C251.074 60.6901 248.846 58.1181 247.055 55.246L246.206 55.7752C248.053 58.7357 250.349 61.3864 253 63.6321L253.646 62.8691ZM204.634 121.439L253.704 63.574L252.941 62.9272L203.872 120.793L204.634 121.439ZM178.025 90.96L203.872 121.439L204.634 120.793L178.788 90.3133L178.025 90.96ZM246.402 55.0661L178.178 90.1921L178.635 91.0812L246.859 55.9551L246.402 55.0661ZM245.176 51.7824C243.238 47.6218 242.155 42.9817 242.155 38.0873H241.155C241.155 43.1305 242.271 47.9146 244.27 52.2047L245.176 51.7824ZM175.98 87.9495L244.952 52.4381L244.494 51.549L175.522 87.0604L175.98 87.9495ZM144.885 51.8794L175.369 87.8283L176.132 87.1816L145.647 51.2327L144.885 51.8794ZM154.268 34.315C153.209 41.0022 149.811 46.9121 144.937 51.1799L145.596 51.9322C150.64 47.5154 154.159 41.397 155.256 34.4714L154.268 34.315ZM241.678 37.0491L154.78 33.8935L154.744 34.8928L241.641 38.0484L241.678 37.0491ZM242.155 38.0873C242.155 37.9101 242.157 37.7332 242.159 37.5567L241.16 37.5407C241.157 37.7226 241.155 37.9048 241.155 38.0873H242.155ZM64.3214 149.348C65.3434 151.594 66.12 153.976 66.6169 156.459L67.5975 156.262C67.0853 153.704 66.2849 151.249 65.2316 148.934L64.3214 149.348ZM98.2867 131.325L64.5476 148.696L65.0054 149.585L98.7445 132.214L98.2867 131.325ZM94.1355 153.87L99.0038 131.878L98.0274 131.662L93.1591 153.654L94.1355 153.87ZM67.1559 156.858L93.696 154.26L93.5986 153.264L67.0585 155.863L67.1559 156.858ZM97.8836 153.849L184.126 145.405L184.029 144.41L97.7862 152.854L97.8836 153.849ZM102.651 129.281L97.3467 153.244L98.3231 153.46L103.628 129.497L102.651 129.281ZM174.527 92.0717L102.911 128.944L103.368 129.834L174.985 92.9608L174.527 92.0717ZM202.012 123.885L175.137 92.1929L174.374 92.8397L201.249 124.532L202.012 123.885ZM184.459 145.231L202.012 124.532L201.249 123.885L183.696 144.584L184.459 145.231ZM189.846 144.845L216.541 142.232L216.444 141.236L189.748 143.85L189.846 144.845ZM203.872 126.977L189.416 144.024L190.178 144.671L204.634 127.624L203.872 126.977ZM216.874 141.411L204.634 126.977L203.872 127.624L216.111 142.057L216.874 141.411ZM224.539 332.739C250.348 322.384 268.575 297.129 268.575 267.616H267.575C267.575 296.707 249.609 321.602 224.166 331.811L224.539 332.739ZM270.543 331.401L224.348 331.775L224.357 332.775L270.552 332.401L270.543 331.401ZM278.947 332.663C278.593 332.545 277.88 332.41 277.06 332.277C276.223 332.14 275.226 331.998 274.272 331.869C273.316 331.74 272.4 331.624 271.723 331.54C271.384 331.498 271.105 331.464 270.911 331.441C270.813 331.429 270.737 331.42 270.686 331.414C270.66 331.411 270.64 331.408 270.626 331.407C270.62 331.406 270.615 331.405 270.611 331.405C270.609 331.405 270.608 331.405 270.607 331.405C270.607 331.405 270.606 331.404 270.606 331.404C270.606 331.404 270.606 331.404 270.606 331.404C270.606 331.404 270.606 331.404 270.547 331.901C270.489 332.398 270.489 332.398 270.489 332.398C270.489 332.398 270.489 332.398 270.489 332.398C270.49 332.398 270.49 332.398 270.49 332.398C270.491 332.398 270.492 332.398 270.494 332.398C270.497 332.399 270.502 332.399 270.509 332.4C270.522 332.401 270.542 332.404 270.567 332.407C270.619 332.413 270.694 332.422 270.791 332.434C270.985 332.457 271.263 332.491 271.6 332.532C272.275 332.616 273.187 332.732 274.138 332.86C275.089 332.989 276.075 333.13 276.9 333.264C277.741 333.401 278.368 333.524 278.631 333.612L278.947 332.663ZM286.597 337.358C285.707 336.245 284.084 335.175 282.585 334.348C281.073 333.513 279.602 332.881 278.947 332.663L278.631 333.612C279.213 333.805 280.627 334.409 282.102 335.223C283.59 336.045 285.058 337.035 285.816 337.982L286.597 337.358ZM291.196 345.297C289.536 341.561 288.28 339.46 286.597 337.358L285.816 337.982C287.431 340 288.646 342.021 290.283 345.703L291.196 345.297ZM304.425 402.817C304.481 402.079 304.328 400.68 304.039 398.854C303.747 397.005 303.306 394.659 302.761 391.991C301.671 386.652 300.163 380.001 298.592 373.405C297.02 366.809 295.384 360.263 294.037 355.134C293.363 352.569 292.762 350.357 292.277 348.668C291.796 346.995 291.42 345.799 291.196 345.297L290.283 345.703C290.471 346.128 290.829 347.249 291.316 348.944C291.798 350.623 292.397 352.827 293.07 355.388C294.414 360.509 296.049 367.047 297.619 373.637C299.189 380.228 300.695 386.867 301.781 392.191C302.325 394.853 302.763 397.182 303.051 399.01C303.344 400.86 303.474 402.14 303.428 402.741L304.425 402.817ZM302.852 410.072C303.306 409.101 303.622 408.429 303.859 407.417C304.093 406.419 304.249 405.1 304.425 402.817L303.428 402.741C303.252 405.024 303.1 406.274 302.885 407.189C302.674 408.088 302.402 408.674 301.946 409.648L302.852 410.072ZM302.322 411.225C302.52 410.782 302.695 410.408 302.852 410.072L301.946 409.648C301.789 409.985 301.611 410.366 301.409 410.816L302.322 411.225ZM295.186 420.466C298.621 417.515 300.459 415.393 302.322 411.225L301.409 410.816C299.621 414.818 297.888 416.827 294.534 419.707L295.186 420.466ZM284.374 426.128C288.164 424.788 291.54 423.597 295.186 420.466L294.534 419.707C291.043 422.705 287.829 423.846 284.041 425.186L284.374 426.128ZM282.669 426.737C283.249 426.527 283.816 426.326 284.374 426.128L284.041 425.186C283.483 425.383 282.912 425.585 282.327 425.798L282.669 426.737ZM116.017 426.267C116.012 426.767 116.013 426.767 116.014 426.767C116.015 426.767 116.017 426.768 116.019 426.768C116.024 426.768 116.032 426.768 116.042 426.768C116.061 426.768 116.091 426.768 116.129 426.769C116.207 426.769 116.324 426.771 116.477 426.772C116.783 426.775 117.238 426.78 117.832 426.786C119.019 426.797 120.761 426.814 122.98 426.835C127.417 426.877 133.761 426.935 141.388 426.999C156.642 427.128 177.028 427.283 197.555 427.386C218.082 427.489 238.753 427.54 254.575 427.463C262.486 427.424 269.188 427.353 274.055 427.241C276.487 427.184 278.466 427.117 279.908 427.038C280.629 426.999 281.222 426.956 281.673 426.91C282.101 426.866 282.459 426.814 282.669 426.737L282.327 425.798C282.253 425.824 282.021 425.869 281.57 425.915C281.142 425.959 280.568 426.001 279.854 426.04C278.427 426.118 276.461 426.185 274.031 426.241C269.174 426.353 262.48 426.424 254.571 426.463C238.753 426.54 218.087 426.489 197.56 426.386C177.034 426.283 156.65 426.128 141.397 425.999C133.77 425.935 127.426 425.877 122.989 425.835C120.771 425.814 119.029 425.797 117.842 425.786C117.248 425.78 116.793 425.775 116.487 425.772C116.334 425.771 116.217 425.769 116.14 425.769C116.101 425.768 116.071 425.768 116.052 425.768C116.042 425.768 116.034 425.768 116.03 425.768C116.027 425.768 116.025 425.768 116.024 425.768C116.023 425.768 116.022 425.768 116.017 426.267ZM112.175 425.925C112.915 426.131 113.855 426.339 114.604 426.496C114.979 426.574 115.309 426.64 115.545 426.686C115.663 426.709 115.758 426.727 115.823 426.74C115.856 426.746 115.881 426.751 115.899 426.754C115.907 426.756 115.914 426.757 115.918 426.758C115.921 426.758 115.922 426.758 115.923 426.759C115.924 426.759 115.925 426.759 115.925 426.759C115.925 426.759 115.925 426.759 115.925 426.759C115.925 426.759 115.925 426.759 115.925 426.759C115.925 426.759 115.925 426.759 116.017 426.267C116.109 425.776 116.109 425.776 116.109 425.776C116.109 425.776 116.109 425.776 116.109 425.776C116.109 425.776 116.109 425.776 116.109 425.776C116.108 425.776 116.108 425.776 116.107 425.776C116.106 425.776 116.105 425.775 116.103 425.775C116.099 425.774 116.092 425.773 116.084 425.771C116.067 425.768 116.043 425.764 116.011 425.757C115.947 425.745 115.854 425.727 115.737 425.705C115.504 425.659 115.179 425.594 114.808 425.517C114.064 425.361 113.15 425.158 112.442 424.961L112.175 425.925ZM111.229 425.681C111.516 425.752 111.82 425.826 112.175 425.925L112.442 424.961C112.071 424.858 111.754 424.781 111.467 424.71L111.229 425.681ZM111.221 425.679L111.222 425.68L111.474 424.712L111.473 424.712L111.221 425.679ZM108.376 424.654C109.658 425.295 110.352 425.466 111.228 425.681L111.466 424.71C110.624 424.503 110.011 424.354 108.823 423.76L108.376 424.654ZM101.205 418.339C103.591 421.303 106.645 423.789 108.376 424.654L108.823 423.76C107.257 422.977 104.31 420.601 101.984 417.712L101.205 418.339ZM97.4735 409.784C96.999 409.942 96.999 409.942 96.999 409.942C96.999 409.942 96.9991 409.942 96.9991 409.942C96.9992 409.942 96.9993 409.943 96.9994 409.943C96.9997 409.944 97.0001 409.945 97.0005 409.946C97.0015 409.949 97.0029 409.953 97.0047 409.959C97.0083 409.97 97.0136 409.985 97.0206 410.006C97.0345 410.047 97.0551 410.107 97.082 410.183C97.1359 410.337 97.2152 410.56 97.3176 410.835C97.5224 411.386 97.8201 412.15 98.1924 413.008C98.9324 414.712 99.9841 416.823 101.205 418.339L101.984 417.712C100.85 416.305 99.8414 414.295 99.1097 412.609C98.746 411.772 98.455 411.024 98.2549 410.486C98.1549 410.218 98.0778 410.001 98.0259 409.853C97.9999 409.779 97.9803 409.722 97.9672 409.683C97.9606 409.664 97.9557 409.65 97.9525 409.64C97.9509 409.635 97.9497 409.632 97.949 409.629C97.9486 409.628 97.9483 409.627 97.9482 409.627C97.9481 409.627 97.948 409.627 97.948 409.626C97.948 409.626 97.948 409.626 97.948 409.626C97.948 409.626 97.948 409.626 97.4735 409.784ZM96.9739 403.581C96.921 404.801 96.9211 406.358 96.9342 407.603C96.9408 408.227 96.9506 408.775 96.9589 409.168C96.963 409.364 96.9667 409.521 96.9693 409.63C96.9707 409.684 96.9717 409.726 96.9725 409.754C96.9729 409.769 96.9732 409.779 96.9734 409.787C96.9734 409.79 96.9735 409.793 96.9736 409.795C96.9736 409.796 96.9736 409.797 96.9736 409.797C96.9736 409.797 96.9736 409.798 96.9737 409.798C96.9737 409.798 96.9737 409.798 96.9737 409.798C96.9737 409.798 96.9737 409.798 97.4735 409.784C97.9733 409.77 97.9733 409.77 97.9733 409.77C97.9733 409.77 97.9733 409.77 97.9733 409.77C97.9733 409.77 97.9733 409.77 97.9733 409.77C97.9732 409.769 97.9732 409.768 97.9732 409.768C97.9732 409.766 97.9731 409.763 97.973 409.76C97.9728 409.753 97.9725 409.742 97.9721 409.728C97.9714 409.7 97.9703 409.659 97.969 409.605C97.9664 409.498 97.9627 409.342 97.9586 409.147C97.9505 408.757 97.9407 408.212 97.9342 407.593C97.9211 406.35 97.9213 404.816 97.973 403.625L96.9739 403.581ZM100.77 385.059C100.287 384.931 100.287 384.931 100.287 384.931C100.287 384.931 100.287 384.931 100.287 384.932C100.287 384.932 100.286 384.932 100.286 384.933C100.286 384.935 100.285 384.937 100.285 384.94C100.283 384.945 100.281 384.953 100.278 384.964C100.272 384.986 100.264 385.018 100.253 385.061C100.231 385.145 100.198 385.27 100.157 385.431C100.075 385.753 99.9567 386.221 99.8141 386.805C99.5291 387.973 99.1457 389.607 98.7522 391.472C97.9669 395.195 97.1353 399.864 96.9739 403.581L97.973 403.625C98.1306 399.994 98.9474 395.391 99.7307 391.679C100.121 389.826 100.502 388.203 100.786 387.042C100.927 386.462 101.044 385.998 101.126 385.679C101.167 385.519 101.199 385.396 101.22 385.313C101.231 385.272 101.239 385.24 101.245 385.219C101.248 385.209 101.25 385.201 101.251 385.196C101.252 385.193 101.253 385.191 101.253 385.19C101.253 385.189 101.253 385.189 101.253 385.188C101.253 385.188 101.253 385.188 101.253 385.188C101.253 385.188 101.253 385.188 100.77 385.059ZM104.81 359.012L100.278 384.973L101.263 385.145L105.796 359.184L104.81 359.012ZM108.149 346.52C107.044 348.829 106.21 351.966 105.654 354.5C105.375 355.772 105.164 356.902 105.022 357.715C104.952 358.121 104.898 358.448 104.862 358.674C104.844 358.787 104.831 358.874 104.822 358.934C104.817 358.964 104.814 358.987 104.812 359.002C104.811 359.01 104.81 359.016 104.809 359.02C104.809 359.022 104.809 359.024 104.808 359.025C104.808 359.025 104.808 359.026 104.808 359.026C104.808 359.026 104.808 359.026 104.808 359.026C104.808 359.026 104.808 359.026 105.303 359.098C105.798 359.17 105.798 359.17 105.798 359.17C105.798 359.17 105.798 359.17 105.798 359.17C105.798 359.17 105.798 359.169 105.798 359.169C105.798 359.168 105.798 359.167 105.799 359.165C105.799 359.162 105.8 359.156 105.801 359.149C105.803 359.134 105.806 359.113 105.811 359.084C105.819 359.026 105.833 358.941 105.85 358.83C105.885 358.609 105.938 358.287 106.007 357.886C106.147 357.085 106.356 355.969 106.631 354.715C107.184 352.194 107.999 349.151 109.051 346.952L108.149 346.52ZM108.723 345.285C108.56 345.641 108.378 346.04 108.149 346.52L109.051 346.952C109.285 346.463 109.47 346.056 109.633 345.699L108.723 345.285ZM112.333 339.826C111.083 341.355 110.371 342.296 109.875 343.071C109.375 343.852 109.1 344.456 108.723 345.285L109.633 345.699C110.011 344.87 110.259 344.325 110.717 343.61C111.18 342.887 111.861 341.983 113.108 340.459L112.333 339.826ZM123.303 332.243C118.642 333.514 115.411 336.062 112.333 339.826L113.108 340.459C116.095 336.806 119.161 334.409 123.566 333.208L123.303 332.243ZM168.763 332.725C168.779 332.225 168.778 332.225 168.778 332.225C168.778 332.225 168.777 332.225 168.777 332.225C168.775 332.225 168.774 332.225 168.771 332.225C168.766 332.225 168.759 332.225 168.749 332.224C168.729 332.224 168.7 332.223 168.661 332.222C168.584 332.22 168.469 332.216 168.319 332.212C168.019 332.203 167.578 332.19 167.016 332.175C165.891 332.143 164.279 332.1 162.331 332.051C158.434 331.955 153.191 331.839 147.806 331.762C142.422 331.684 136.892 331.646 132.423 331.704C130.189 331.733 128.216 331.786 126.656 331.871C125.117 331.955 123.93 332.072 123.303 332.243L123.566 333.208C124.073 333.069 125.152 332.955 126.711 332.87C128.25 332.786 130.208 332.733 132.436 332.704C136.891 332.646 142.41 332.684 147.792 332.762C153.172 332.839 158.411 332.955 162.306 333.051C164.253 333.099 165.864 333.143 166.988 333.174C167.55 333.19 167.99 333.203 168.29 333.211C168.439 333.216 168.554 333.219 168.631 333.221C168.67 333.223 168.699 333.223 168.719 333.224C168.729 333.224 168.736 333.225 168.741 333.225C168.743 333.225 168.745 333.225 168.746 333.225C168.747 333.225 168.748 333.225 168.748 333.225C168.748 333.225 168.748 333.225 168.763 332.725ZM173.56 332.186L168.759 332.225L168.767 333.225L173.568 333.186L173.56 332.186ZM128.292 267.616C128.292 297.53 147.018 323.07 173.385 333.153L173.743 332.219C147.749 322.279 129.292 297.102 129.292 267.616H128.292ZM198.433 197.475C159.695 197.475 128.292 228.878 128.292 267.616H129.292C129.292 229.43 160.248 198.475 198.433 198.475V197.475ZM268.575 267.616C268.575 228.878 237.172 197.475 198.433 197.475V198.475C236.619 198.475 267.575 229.43 267.575 267.616H268.575Z" fill="black"/>
</svg>
