<svg width="487" height="97" viewBox="0 0 487 97" fill="none" xmlns="http://www.w3.org/2000/svg">
<path d="M47.0398 3.27273H58.0483V51.1065C58.0483 56.1965 56.8527 60.7064 54.4616 64.6364C52.0705 68.5426 48.7088 71.6203 44.3764 73.8693C40.044 76.0947 34.9659 77.2074 29.142 77.2074C23.3419 77.2074 18.2756 76.0947 13.9432 73.8693C9.6108 71.6203 6.24905 68.5426 3.85795 64.6364C1.46686 60.7064 0.271307 56.1965 0.271307 51.1065V3.27273H11.2443V50.2188C11.2443 53.5095 11.9664 56.4332 13.4105 58.9901C14.8783 61.5469 16.9498 63.5592 19.625 65.027C22.3002 66.4711 25.4725 67.1932 29.142 67.1932C32.8352 67.1932 36.0194 66.4711 38.6946 65.027C41.3935 63.5592 43.4531 61.5469 44.8736 58.9901C46.3177 56.4332 47.0398 53.5095 47.0398 50.2188V3.27273ZM83.7674 43.6136V76H73.1495V21.4545H83.3413V30.3324H84.016C85.2707 27.4441 87.2357 25.1241 89.9109 23.3722C92.6097 21.6203 96.007 20.7443 100.103 20.7443C103.819 20.7443 107.075 21.5256 109.868 23.0881C112.662 24.6269 114.828 26.9233 116.367 29.9773C117.906 33.0312 118.675 36.8073 118.675 41.3054V76H108.057V42.5838C108.057 38.6302 107.027 35.5407 104.968 33.3153C102.908 31.0663 100.079 29.9418 96.4805 29.9418C94.0183 29.9418 91.8285 30.4744 89.9109 31.5398C88.0169 32.6051 86.5136 34.1676 85.4009 36.2273C84.3119 38.2633 83.7674 40.7254 83.7674 43.6136ZM132.915 76V21.4545H143.533V76H132.915ZM138.277 13.0384C136.431 13.0384 134.845 12.4228 133.519 11.1918C132.217 9.93702 131.566 8.44555 131.566 6.71733C131.566 4.96543 132.217 3.47396 133.519 2.24289C134.845 0.988161 136.431 0.360794 138.277 0.360794C140.124 0.360794 141.698 0.988161 143 2.24289C144.326 3.47396 144.989 4.96543 144.989 6.71733C144.989 8.44555 144.326 9.93702 143 11.1918C141.698 12.4228 140.124 13.0384 138.277 13.0384ZM198.336 22.3778C197.957 19.0161 196.395 16.4119 193.648 14.5653C190.902 12.6951 187.446 11.7599 183.279 11.7599C180.296 11.7599 177.716 12.2334 175.538 13.1804C173.36 14.1037 171.667 15.3821 170.46 17.0156C169.276 18.6255 168.684 20.4602 168.684 22.5199C168.684 24.2481 169.086 25.7396 169.891 26.9943C170.72 28.2491 171.797 29.3026 173.123 30.1548C174.472 30.9834 175.916 31.6818 177.455 32.25C178.994 32.7945 180.474 33.2443 181.894 33.5994L188.996 35.446C191.317 36.0142 193.696 36.7836 196.134 37.7543C198.573 38.7249 200.834 40.0033 202.917 41.5895C205 43.1757 206.681 45.1406 207.96 47.4844C209.262 49.8281 209.913 52.6335 209.913 55.9006C209.913 60.0199 208.847 63.6776 206.717 66.8736C204.61 70.0696 201.544 72.5909 197.519 74.4375C193.518 76.2841 188.677 77.2074 182.995 77.2074C177.55 77.2074 172.839 76.3433 168.862 74.6151C164.884 72.8868 161.771 70.4366 159.522 67.2642C157.273 64.0682 156.03 60.2803 155.793 55.9006H166.802C167.015 58.5284 167.867 60.7183 169.359 62.4702C170.874 64.1984 172.803 65.4886 175.147 66.3409C177.514 67.1695 180.107 67.5838 182.924 67.5838C186.025 67.5838 188.783 67.0985 191.198 66.1278C193.637 65.1335 195.554 63.7604 196.951 62.0085C198.348 60.233 199.046 58.1615 199.046 55.794C199.046 53.6397 198.431 51.8759 197.2 50.5028C195.992 49.1297 194.347 47.9934 192.263 47.0938C190.204 46.1941 187.872 45.401 185.268 44.7145L176.674 42.3707C170.85 40.7846 166.234 38.4527 162.825 35.375C159.439 32.2973 157.746 28.2254 157.746 23.1591C157.746 18.9687 158.883 15.3111 161.156 12.1861C163.428 9.06108 166.506 6.63447 170.388 4.90625C174.271 3.15435 178.651 2.27841 183.528 2.27841C188.452 2.27841 192.796 3.14252 196.56 4.87074C200.348 6.59896 203.331 8.97822 205.509 12.0085C207.687 15.0151 208.824 18.4716 208.918 22.3778H198.336ZM222.173 96.4545V21.4545H232.542V30.2969H233.43C234.046 29.1605 234.933 27.8466 236.093 26.3551C237.253 24.8636 238.863 23.5616 240.923 22.4489C242.983 21.3125 245.705 20.7443 249.091 20.7443C253.494 20.7443 257.424 21.857 260.88 24.0824C264.337 26.3078 267.047 29.5156 269.012 33.706C271.001 37.8963 271.995 42.9389 271.995 48.8338C271.995 54.7287 271.013 59.7831 269.048 63.9972C267.083 68.1875 264.384 71.419 260.951 73.6918C257.519 75.9408 253.6 77.0653 249.197 77.0653C245.883 77.0653 243.172 76.509 241.065 75.3963C238.982 74.2836 237.348 72.9815 236.164 71.4901C234.981 69.9986 234.069 68.6728 233.43 67.5128H232.791V96.4545H222.173ZM232.578 48.7273C232.578 52.5625 233.134 55.9242 234.247 58.8125C235.359 61.7008 236.969 63.9616 239.076 65.5952C241.183 67.205 243.764 68.0099 246.818 68.0099C249.99 68.0099 252.642 67.1695 254.772 65.4886C256.903 63.7841 258.513 61.4759 259.602 58.5639C260.715 55.652 261.271 52.3731 261.271 48.7273C261.271 45.1288 260.726 41.8973 259.637 39.0327C258.572 36.1681 256.962 33.9072 254.808 32.25C252.677 30.5928 250.014 29.7642 246.818 29.7642C243.74 29.7642 241.136 30.5573 239.005 32.1435C236.898 33.7296 235.3 35.9432 234.211 38.7841C233.122 41.625 232.578 44.9394 232.578 48.7273ZM294.51 43.6136V76H283.892V3.27273H294.368V30.3324H295.042C296.321 27.3968 298.274 25.0649 300.902 23.3366C303.529 21.6084 306.962 20.7443 311.2 20.7443C314.94 20.7443 318.208 21.5137 321.001 23.0526C323.818 24.5914 325.996 26.8878 327.535 29.9418C329.098 32.9721 329.879 36.7599 329.879 41.3054V76H319.261V42.5838C319.261 38.5829 318.231 35.4815 316.172 33.2798C314.112 31.0544 311.247 29.9418 307.578 29.9418C305.068 29.9418 302.819 30.4744 300.831 31.5398C298.866 32.6051 297.315 34.1676 296.179 36.2273C295.066 38.2633 294.51 40.7254 294.51 43.6136ZM367.556 77.1009C362.182 77.1009 357.554 75.9527 353.672 73.6562C349.813 71.3362 346.83 68.081 344.723 63.8906C342.639 59.6766 341.598 54.7405 341.598 49.0824C341.598 43.4953 342.639 38.571 344.723 34.3097C346.83 30.0483 349.765 26.7221 353.529 24.331C357.317 21.9399 361.744 20.7443 366.811 20.7443C369.888 20.7443 372.871 21.2533 375.76 22.2713C378.648 23.2893 381.24 24.8873 383.537 27.0653C385.833 29.2434 387.644 32.0724 388.97 35.5526C390.296 39.009 390.958 43.2112 390.958 48.1591V51.9233H347.599V43.9688H380.554C380.554 41.1752 379.985 38.7012 378.849 36.5469C377.713 34.3688 376.115 32.6525 374.055 31.3977C372.019 30.143 369.628 29.5156 366.882 29.5156C363.899 29.5156 361.295 30.2495 359.069 31.7173C356.868 33.1615 355.163 35.0554 353.956 37.3991C352.772 39.7192 352.18 42.2405 352.18 44.9631V51.1776C352.18 54.8234 352.819 57.9247 354.098 60.4815C355.4 63.0384 357.211 64.9915 359.531 66.3409C361.851 67.6667 364.562 68.3295 367.663 68.3295C369.675 68.3295 371.51 68.0455 373.167 67.4773C374.824 66.8854 376.257 66.0095 377.464 64.8494C378.672 63.6894 379.595 62.2571 380.234 60.5526L390.284 62.3636C389.479 65.3229 388.035 67.9152 385.951 70.1406C383.892 72.3423 381.299 74.0587 378.174 75.2898C375.073 76.4972 371.534 77.1009 367.556 77.1009ZM402.739 76V21.4545H413.002V30.1193H413.57C414.565 27.1837 416.317 24.8755 418.826 23.1946C421.359 21.4901 424.224 20.6378 427.42 20.6378C428.083 20.6378 428.864 20.6615 429.763 20.7088C430.687 20.7562 431.409 20.8153 431.93 20.8864V31.0426C431.504 30.9242 430.746 30.794 429.657 30.652C428.568 30.4863 427.479 30.4034 426.39 30.4034C423.88 30.4034 421.643 30.9361 419.678 32.0014C417.737 33.0431 416.198 34.4991 415.062 36.3693C413.925 38.2159 413.357 40.3229 413.357 42.6903V76H402.739ZM462.674 77.1009C457.3 77.1009 452.671 75.9527 448.789 73.6562C444.93 71.3362 441.947 68.081 439.84 63.8906C437.757 59.6766 436.715 54.7405 436.715 49.0824C436.715 43.4953 437.757 38.571 439.84 34.3097C441.947 30.0483 444.882 26.7221 448.647 24.331C452.435 21.9399 456.862 20.7443 461.928 20.7443C465.006 20.7443 467.989 21.2533 470.877 22.2713C473.765 23.2893 476.357 24.8873 478.654 27.0653C480.95 29.2434 482.761 32.0724 484.087 35.5526C485.413 39.009 486.076 43.2112 486.076 48.1591V51.9233H442.716V43.9688H475.671C475.671 41.1752 475.103 38.7012 473.966 36.5469C472.83 34.3688 471.232 32.6525 469.172 31.3977C467.136 30.143 464.745 29.5156 461.999 29.5156C459.016 29.5156 456.412 30.2495 454.186 31.7173C451.985 33.1615 450.28 35.0554 449.073 37.3991C447.889 39.7192 447.297 42.2405 447.297 44.9631V51.1776C447.297 54.8234 447.936 57.9247 449.215 60.4815C450.517 63.0384 452.328 64.9915 454.648 66.3409C456.968 67.6667 459.679 68.3295 462.78 68.3295C464.792 68.3295 466.627 68.0455 468.284 67.4773C469.942 66.8854 471.374 66.0095 472.581 64.8494C473.789 63.6894 474.712 62.2571 475.351 60.5526L485.401 62.3636C484.596 65.3229 483.152 67.9152 481.069 70.1406C479.009 72.3423 476.417 74.0587 473.292 75.2898C470.19 76.4972 466.651 77.1009 462.674 77.1009Z" fill="black"/>
</svg>
